<svg width="65" height="64" viewBox="0 0 65 64" fill="none" xmlns="http://www.w3.org/2000/svg">
<g clip-path="url(#clip0_100_228)">
<path d="M64.3484 49.5898C62.0204 50.1818 60.5804 49.6158 59.2884 47.6758L50.1004 34.9638L48.7724 33.2038L38.0424 47.7178C36.8164 49.4638 35.5305 50.2238 33.2425 49.6058L46.9824 31.1618L34.1904 14.5018C36.3904 14.0738 37.9104 14.2918 39.2604 16.2618L48.7905 29.1318L58.3904 16.3318C59.6204 14.5858 60.9424 13.9218 63.1504 14.5658L58.1904 21.1418L51.4705 29.8918C50.6705 30.8918 50.7804 31.5758 51.5164 32.5418L64.3484 49.5898ZM0.36445 30.8538L1.48845 25.3258C4.54845 14.3858 17.0885 9.83977 25.7365 16.5998C30.7905 20.5758 32.0464 26.1998 31.7964 32.4998H3.30845C2.88045 43.8398 11.0424 50.6838 21.4485 47.1918C25.0985 45.9658 27.2484 43.1078 28.3244 39.5318C28.8704 37.7398 29.7745 37.4598 31.4585 37.9718C30.5985 42.4438 28.6584 46.1798 24.5584 48.5178C18.4324 52.0178 9.68845 50.8858 5.08845 46.0218C2.34845 43.1998 1.21645 39.6238 0.70845 35.7998C0.62845 35.1678 0.46845 34.5658 0.34845 33.9598C0.359116 32.9251 0.36445 31.8904 0.36445 30.8558V30.8538ZM3.36045 30.0938H29.1045C28.9365 21.8938 23.8304 16.0698 16.8524 16.0198C9.19245 15.9598 3.69245 21.6458 3.36045 30.0938Z" fill="#F9FAFB"/>
</g>
<defs>
<clipPath id="clip0_100_228">
<rect width="64" height="64" fill="white" transform="translate(0.34845)"/>
</clipPath>
</defs>
</svg>
