<svg width="44" height="64" viewBox="0 0 44 64" fill="none" xmlns="http://www.w3.org/2000/svg">
<g clip-path="url(#clip0_100_250)">
<path d="M21.7756 32.0002C21.7756 29.1712 22.8994 26.4581 24.8998 24.4577C26.9002 22.4573 29.6133 21.3335 32.4423 21.3335C35.2713 21.3335 37.9844 22.4573 39.9848 24.4577C41.9852 26.4581 43.109 29.1712 43.109 32.0002C43.109 34.8291 41.9852 37.5422 39.9848 39.5426C37.9844 41.543 35.2713 42.6668 32.4423 42.6668C29.6133 42.6668 26.9002 41.543 24.8998 39.5426C22.8994 37.5422 21.7756 34.8291 21.7756 32.0002Z" fill="#1ABCFE"/>
<path d="M0.442383 53.3332C0.442383 50.5042 1.56619 47.7911 3.56658 45.7907C5.56697 43.7903 8.28007 42.6665 11.109 42.6665H21.7757V53.3332C21.7757 56.1621 20.6519 58.8753 18.6515 60.8756C16.6511 62.876 13.938 63.9998 11.109 63.9998C8.28007 63.9998 5.56697 62.876 3.56658 60.8756C1.56619 58.8753 0.442383 56.1621 0.442383 53.3332Z" fill="#0ACF83"/>
<path d="M21.7756 0V21.3333H32.4423C35.2713 21.3333 37.9844 20.2095 39.9848 18.2091C41.9852 16.2088 43.109 13.4956 43.109 10.6667C43.109 7.83769 41.9852 5.12458 39.9848 3.12419C37.9844 1.12381 35.2713 0 32.4423 0L21.7756 0Z" fill="#FF7262"/>
<path d="M0.442383 10.6667C0.442383 13.4956 1.56619 16.2088 3.56658 18.2091C5.56697 20.2095 8.28007 21.3333 11.109 21.3333H21.7757V0H11.109C8.28007 0 5.56697 1.12381 3.56658 3.12419C1.56619 5.12458 0.442383 7.83769 0.442383 10.6667Z" fill="#F24E1E"/>
<path d="M0.442383 32.0002C0.442383 34.8291 1.56619 37.5422 3.56658 39.5426C5.56697 41.543 8.28007 42.6668 11.109 42.6668H21.7757V21.3335H11.109C8.28007 21.3335 5.56697 22.4573 3.56658 24.4577C1.56619 26.4581 0.442383 29.1712 0.442383 32.0002Z" fill="#A259FF"/>
</g>
<defs>
<clipPath id="clip0_100_250">
<rect width="42.6667" height="64" fill="white" transform="translate(0.442383)"/>
</clipPath>
</defs>
</svg>
