<svg width="65" height="64" viewBox="0 0 65 64" fill="none" xmlns="http://www.w3.org/2000/svg">
<path d="M57.2484 29.4665L35.5151 7.73317C34.8484 7.0665 33.9151 6.6665 32.9817 6.6665C32.0484 6.6665 31.1151 7.0665 30.4484 7.73317L25.7817 12.3998L31.2484 17.8665C31.7817 17.5998 32.3151 17.4665 32.9817 17.4665C35.2484 17.4665 36.9817 19.1998 36.9817 21.4665C36.9817 22.1332 36.8484 22.6665 36.5817 23.1998L41.9151 28.5332C42.4484 28.2665 42.9817 28.1332 43.6484 28.1332C45.9151 28.1332 47.6484 29.8665 47.6484 32.1332C47.6484 34.3998 45.9151 36.1332 43.6484 36.1332C41.3817 36.1332 39.6484 34.3998 39.6484 32.1332C39.6484 31.4665 39.7817 30.9332 40.0484 30.3998L34.7151 25.0665C34.5817 25.0665 34.4484 25.1998 34.3151 25.1998V39.0665C35.9151 39.5998 36.9817 41.0665 36.9817 42.7998C36.9817 45.0665 35.2484 46.7998 32.9817 46.7998C30.7151 46.7998 28.9817 45.0665 28.9817 42.7998C28.9817 41.0665 30.0484 39.5998 31.6484 39.0665V25.0665C30.0484 24.5332 28.9817 23.0665 28.9817 21.3332C28.9817 20.6665 29.1151 20.1332 29.3817 19.5998L23.9151 14.1332L8.71507 29.4665C8.04841 30.1332 7.64841 31.0665 7.64841 31.9998C7.64841 32.9332 8.04841 33.8665 8.71507 34.5332L30.4484 56.2665C31.1151 56.9332 32.0484 57.3332 32.9817 57.3332C33.9151 57.3332 34.8484 56.9332 35.5151 56.2665L57.2484 34.5332C57.9151 33.8665 58.3151 32.9332 58.3151 31.9998C58.3151 31.0665 57.9151 30.1332 57.2484 29.4665Z" fill="#F4511E"/>
</svg>
