<svg width="65" height="64" viewBox="0 0 65 64" fill="none" xmlns="http://www.w3.org/2000/svg">
<path d="M0.163574 64V0H64.1636V64H0.163574Z" fill="#FFD600"/>
<path d="M42.0089 47.9057C43.2392 49.9039 44.5761 51.8186 47.4081 51.8186C49.7867 51.8186 51.0347 50.6363 51.0347 49.0008C51.0347 47.0434 49.7441 46.3483 47.1272 45.2088L45.6925 44.5972C41.5521 42.8408 38.7983 40.6399 38.7983 35.991C38.7983 31.7066 42.0783 28.4461 47.2036 28.4461C50.8534 28.4461 53.4756 29.7101 55.3672 33.0203L50.8978 35.8772C49.9147 34.1208 48.8516 33.4292 47.2036 33.4292C45.5218 33.4292 44.4569 34.4906 44.4569 35.8772C44.4569 37.591 45.5236 38.2843 47.9858 39.3457L49.4205 39.9572C54.3005 42.0354 57.0525 44.1581 57.0525 48.9297C57.0525 54.071 52.9921 56.8888 47.5414 56.8888C42.2098 56.8888 39.1823 54.2132 37.4969 50.9012L42.0089 47.9057ZM21.4116 48.0514C22.3112 49.6621 23.6783 50.9012 25.6445 50.9012C27.5254 50.9012 28.6081 50.1581 28.6081 47.2692V28.4443H34.5334V48.1795C34.5334 54.1652 31.0614 56.8888 25.9912 56.8888C21.4098 56.8888 18.1032 53.7848 16.7556 50.9012L21.4116 48.0514Z" fill="#000001"/>
</svg>
