<svg width="57" height="64" viewBox="0 0 57 64" fill="none" xmlns="http://www.w3.org/2000/svg">
<g clip-path="url(#clip0_100_224)">
<path d="M28.2879 64C27.43 64 26.6292 63.7668 25.8856 63.3586L18.2783 58.7517C17.1343 58.1102 17.7063 57.877 18.0495 57.7603C19.5939 57.2355 19.8798 57.1189 21.4814 56.1859C21.6529 56.0692 21.8817 56.1275 22.0533 56.2442L27.8875 59.8014C28.1163 59.918 28.4023 59.918 28.5739 59.8014L51.3959 46.3307C51.6246 46.214 51.739 45.9808 51.739 45.6892V18.806C51.739 18.5145 51.6246 18.2812 51.3959 18.1646L28.5739 4.75223C28.3451 4.63561 28.0591 4.63561 27.8875 4.75223L5.06556 18.1646C4.83678 18.2812 4.72237 18.5728 4.72237 18.806V45.6892C4.72237 45.9224 4.83678 46.214 5.06556 46.3307L11.3001 50.0045C14.6748 51.7539 16.7911 49.7129 16.7911 47.6719V21.1386C16.7911 20.7888 17.0771 20.4389 17.4775 20.4389H20.3946C20.7378 20.4389 21.0809 20.7305 21.0809 21.1386V47.6719C21.0809 52.2788 18.6214 54.9613 14.3316 54.9613C13.0161 54.9613 11.9865 54.9613 9.06939 53.5034L3.06364 50.0045C1.5765 49.1297 0.661331 47.4969 0.661331 45.7475V18.8644C0.661331 17.115 1.5765 15.4822 3.06364 14.6074L25.8856 1.13672C27.3156 0.320313 29.2603 0.320313 30.6902 1.13672L53.5121 14.6074C54.9993 15.4822 55.9145 17.115 55.9145 18.8644V45.7475C55.9145 47.4969 54.9993 49.1297 53.5121 50.0045L30.6902 63.4752C30.0039 63.7668 29.1459 64 28.2879 64Z" fill="#5FA04E"/>
<path d="M35.3804 45.5143C25.3708 45.5143 23.3117 40.8491 23.3117 36.8837C23.3117 36.5339 23.5977 36.184 23.998 36.184H26.9723C27.3155 36.184 27.6015 36.4172 27.6015 36.7671C28.0591 39.8577 29.3747 41.374 35.4376 41.374C40.2422 41.374 42.3014 40.266 42.3014 37.6418C42.3014 36.1256 41.7294 35.0176 34.2364 34.2595C28.0019 33.6181 24.1125 32.2186 24.1125 27.1451C24.1125 22.4216 28.0019 19.6226 34.5225 19.6226C41.8438 19.6226 45.4472 22.1884 45.9048 27.7866C45.9048 27.9616 45.8476 28.1365 45.7332 28.3115C45.6189 28.4281 45.4472 28.5447 45.2756 28.5447H42.2442C41.9581 28.5447 41.6722 28.3115 41.615 28.0198C40.9286 24.8126 39.1555 23.7629 34.4653 23.7629C29.203 23.7629 28.5739 25.629 28.5739 27.0285C28.5739 28.7196 29.3175 29.2445 36.41 30.1775C43.4453 31.1106 46.7628 32.4518 46.7628 37.4669C46.7628 42.5986 42.5873 45.5143 35.3804 45.5143Z" fill="#5FA04E"/>
</g>
<defs>
<clipPath id="clip0_100_224">
<rect width="56.32" height="64" fill="white" transform="translate(0.0284424)"/>
</clipPath>
</defs>
</svg>
