<svg width="70" height="64" viewBox="0 0 70 64" fill="none" xmlns="http://www.w3.org/2000/svg">
<g clip-path="url(#clip0_100_212)">
<path d="M35.0727 38.7725C38.745 38.7725 41.722 35.7404 41.722 32C41.722 28.2597 38.745 25.2275 35.0727 25.2275C31.4004 25.2275 28.4233 28.2597 28.4233 32C28.4233 35.7404 31.4004 38.7725 35.0727 38.7725Z" fill="#087EA4"/>
<path d="M35.0727 47.2379C53.4344 47.2379 68.3194 40.4156 68.3194 31.9998C68.3194 23.584 53.4344 16.7617 35.0727 16.7617C16.711 16.7617 1.82593 23.584 1.82593 31.9998C1.82593 40.4156 16.711 47.2379 35.0727 47.2379Z" stroke="#087EA4" stroke-width="3"/>
<path d="M22.116 39.619C31.2969 55.8152 44.5403 65.5336 51.6961 61.3257C58.8518 57.1178 57.2102 40.5771 48.0293 24.3809C38.8485 8.18475 25.6051 -1.53366 18.4493 2.67422C11.2935 6.88211 12.9352 23.4228 22.116 39.619Z" stroke="#087EA4" stroke-width="3"/>
<path d="M22.1161 24.3811C12.9352 40.5772 11.2936 57.118 18.4493 61.3259C25.6051 65.5337 38.8485 55.8153 48.0293 39.6192C57.2102 23.423 58.8518 6.88229 51.6961 2.67441C44.5403 -1.53348 31.2969 8.18494 22.1161 24.3811Z" stroke="#087EA4" stroke-width="3"/>
</g>
<defs>
<clipPath id="clip0_100_212">
<rect width="69.8182" height="64" fill="white" transform="translate(0.163574)"/>
</clipPath>
</defs>
</svg>
