<svg width="65" height="64" viewBox="0 0 65 64" fill="none" xmlns="http://www.w3.org/2000/svg">
<g clip-path="url(#clip0_100_233)">
<path d="M64.3832 31.295C64.2092 20.595 58.2432 10.177 49.0132 4.69099C41.7412 0.161987 32.5551 -1.05701 24.2811 1.03299C11.8281 4.16799 1.90014 15.446 0.638145 28.3C-0.929856 40.44 5.21014 53.066 15.7031 59.292C25.9791 65.736 39.9562 65.475 50.0032 58.692C59.0602 52.814 64.6772 42.092 64.3732 31.304L64.3832 31.295ZM34.1651 59.25C19.6221 60.687 5.55815 48.365 5.16515 33.778C4.06514 21.935 11.8701 10.222 23.0171 6.30299C38.6491 0.0329871 57.8512 11.615 59.4622 28.38C61.9882 43.444 49.4482 58.78 34.1651 59.25ZM24.5951 30.38L45.6252 13.18L34.2612 30.423C31.0392 30.423 27.8171 30.424 24.5951 30.38ZM30.5081 33.56L40.1741 33.604L19.1441 50.847L30.5081 33.56Z" fill="#F9FAFB"/>
</g>
<defs>
<clipPath id="clip0_100_233">
<rect width="64" height="64" fill="white" transform="translate(0.395142)"/>
</clipPath>
</defs>
</svg>
