<svg width="106" height="64" viewBox="0 0 106 64" fill="none" xmlns="http://www.w3.org/2000/svg">
<g clip-path="url(#clip0_100_243)">
<mask id="mask0_100_243" style="mask-type:luminance" maskUnits="userSpaceOnUse" x="0" y="0" width="106" height="63">
<path d="M0.715088 0H105.442V62.8364H0.715088V0Z" fill="white"/>
</mask>
<g mask="url(#mask0_100_243)">
<path fill-rule="evenodd" clip-rule="evenodd" d="M53.0787 0C39.1151 0 30.3878 6.98182 26.8969 20.9455C32.1333 13.9636 38.2424 11.3455 45.2242 13.0909C49.2077 14.0858 52.0547 16.9775 55.2062 20.1755C60.3398 25.3867 66.2821 31.4182 79.2605 31.4182C93.2242 31.4182 101.951 24.4364 105.442 10.4727C100.206 17.4545 94.0969 20.0727 87.1151 18.3273C83.1316 17.3324 80.2845 14.4407 77.133 11.2427C71.9994 6.03151 66.0571 0 53.0787 0ZM26.8969 31.4182C12.9333 31.4182 4.206 38.4 0.715088 52.3636C5.95145 45.3818 12.0605 42.7636 19.0424 44.5091C23.0259 45.5059 25.8729 48.3956 29.0244 51.5937C34.158 56.8048 40.1003 62.8364 53.0787 62.8364C67.0424 62.8364 75.7696 55.8545 79.2605 41.8909C74.0242 48.8727 67.9151 51.4909 60.9333 49.7455C56.9498 48.7505 54.1027 45.8589 50.9512 42.6608C45.8176 37.4497 39.8753 31.4182 26.8969 31.4182Z" fill="#38BDF8"/>
</g>
</g>
<defs>
<clipPath id="clip0_100_243">
<rect width="104.727" height="64" fill="white" transform="translate(0.715088)"/>
</clipPath>
</defs>
</svg>
