<svg width="65" height="64" viewBox="0 0 65 64" fill="none" xmlns="http://www.w3.org/2000/svg">
<g clip-path="url(#clip0_100_208)">
<path d="M61.1636 0H3.16357C1.50672 0 0.163574 1.34315 0.163574 3V61C0.163574 62.6569 1.50672 64 3.16357 64H61.1636C62.8204 64 64.1636 62.6569 64.1636 61V3C64.1636 1.34315 62.8204 0 61.1636 0Z" fill="#3178C6"/>
<path fill-rule="evenodd" clip-rule="evenodd" d="M37.2947 49.734V56.747C38.4309 57.331 39.7746 57.7695 41.3259 58.0615C42.8773 58.354 44.5123 58.5 46.2312 58.5C47.9063 58.5 49.4977 58.3395 51.0051 58.018C52.5131 57.6965 53.8346 57.167 54.9711 56.429C56.1071 55.691 57.0066 54.727 57.6696 53.536C58.3321 52.3455 58.6636 50.8735 58.6636 49.1203C58.6636 47.8493 58.4741 46.7353 58.0956 45.7783C57.7166 44.8214 57.1706 43.9704 56.4566 43.2252C55.7431 42.4801 54.8871 41.8117 53.8896 41.22C52.8916 40.6283 51.7666 40.0694 50.5136 39.5435C49.596 39.1636 48.773 38.7947 48.0447 38.4368C47.3163 38.0788 46.6973 37.7136 46.1875 37.341C45.6776 36.9684 45.2843 36.574 45.0076 36.1576C44.7308 35.7413 44.5924 35.27 44.5924 34.7441C44.5924 34.2619 44.7162 33.8273 44.9639 33.4402C45.2115 33.053 45.5611 32.7206 46.0127 32.443C46.4642 32.1655 47.0177 31.95 47.6732 31.7966C48.3287 31.6431 49.057 31.5664 49.8582 31.5664C50.4411 31.5664 51.0561 31.6103 51.7046 31.6979C52.3526 31.7856 53.0046 31.9207 53.6601 32.1034C54.3156 32.286 54.9526 32.5161 55.5721 32.7937C56.1911 33.0713 56.7626 33.3927 57.2871 33.7579V27.2054C56.2236 26.7963 55.0621 26.4931 53.8021 26.2959C52.5421 26.0986 51.0966 26 49.4649 26C47.8043 26 46.2312 26.1789 44.7454 26.5369C43.2596 26.8948 41.9523 27.4537 40.8234 28.2134C39.6945 28.9731 38.8023 29.941 38.1468 31.1171C37.4913 32.2932 37.1636 33.6995 37.1636 35.3358C37.1636 37.4251 37.7644 39.2074 38.9662 40.683C40.1679 42.1587 41.9923 43.4078 44.4395 44.4305C45.4009 44.825 46.2967 45.2122 47.127 45.592C47.9573 45.9719 48.6747 46.3664 49.2792 46.7755C49.8837 47.1846 50.3606 47.6302 50.7101 48.1123C51.0601 48.5944 51.2346 49.1423 51.2346 49.7559C51.2346 50.209 51.1256 50.629 50.9071 51.016C50.6886 51.403 50.3571 51.739 49.9128 52.024C49.4685 52.309 48.915 52.532 48.2522 52.6925C47.5895 52.853 46.8138 52.9335 45.9253 52.9335C44.4103 52.9335 42.91 52.667 41.4242 52.1335C39.9385 51.6005 38.562 50.8005 37.2947 49.734ZM25.5149 32.2772H34.6636V26.5H9.16357V32.2772H18.2675V58H25.5149V32.2772Z" fill="white"/>
</g>
<defs>
<clipPath id="clip0_100_208">
<rect width="64" height="64" fill="white" transform="translate(0.163574)"/>
</clipPath>
</defs>
</svg>
