<svg width="40" height="40" viewBox="0 0 40 40" fill="none" xmlns="http://www.w3.org/2000/svg">
<circle cx="20" cy="20" r="19.5" fill="#E50000" stroke="#E50000"/>
<mask id="path-2-outside-1_1_27" maskUnits="userSpaceOnUse" x="12" y="12" width="15" height="15" fill="black">
<rect fill="white" x="12" y="12" width="15" height="15"/>
<path d="M21.946 23.606H16.942L16.114 26H13.468L17.986 13.418H20.92L25.438 26H22.774L21.946 23.606ZM21.262 21.59L19.444 16.334L17.626 21.59H21.262Z"/>
</mask>
<path d="M21.946 23.606H16.942L16.114 26H13.468L17.986 13.418H20.92L25.438 26H22.774L21.946 23.606ZM21.262 21.59L19.444 16.334L17.626 21.59H21.262Z" fill="white"/>
<path d="M21.946 23.606L22.8911 23.2791L22.6583 22.606H21.946V23.606ZM16.942 23.606V22.606H16.2297L15.9969 23.2791L16.942 23.606ZM16.114 26V27H16.8263L17.0591 26.3269L16.114 26ZM13.468 26L12.5268 25.662L12.0464 27H13.468V26ZM17.986 13.418V12.418H17.2826L17.0448 13.08L17.986 13.418ZM20.92 13.418L21.8612 13.08L21.6234 12.418H20.92V13.418ZM25.438 26V27H26.8596L26.3792 25.662L25.438 26ZM22.774 26L21.8289 26.3269L22.0617 27H22.774V26ZM21.262 21.59V22.59H22.666L22.2071 21.2631L21.262 21.59ZM19.444 16.334L20.3891 16.0071L19.444 13.2749L18.4989 16.0071L19.444 16.334ZM17.626 21.59L16.6809 21.2631L16.222 22.59H17.626V21.59ZM21.946 22.606H16.942V24.606H21.946V22.606ZM15.9969 23.2791L15.1689 25.6731L17.0591 26.3269L17.8871 23.9329L15.9969 23.2791ZM16.114 25H13.468V27H16.114V25ZM14.4092 26.338L18.9272 13.756L17.0448 13.08L12.5268 25.662L14.4092 26.338ZM17.986 14.418H20.92V12.418H17.986V14.418ZM19.9788 13.756L24.4968 26.338L26.3792 25.662L21.8612 13.08L19.9788 13.756ZM25.438 25H22.774V27H25.438V25ZM23.7191 25.6731L22.8911 23.2791L21.0009 23.9329L21.8289 26.3269L23.7191 25.6731ZM22.2071 21.2631L20.3891 16.0071L18.4989 16.6609L20.3169 21.9169L22.2071 21.2631ZM18.4989 16.0071L16.6809 21.2631L18.5711 21.9169L20.3891 16.6609L18.4989 16.0071ZM17.626 22.59H21.262V20.59H17.626V22.59Z" fill="#E50000" mask="url(#path-2-outside-1_1_27)"/>
</svg>
